<svg xmlns="http://www.w3.org/2000/svg" viewBox="0 0 707.5966 111.8858"><defs><style>.a{fill:#151539;}.b{fill:#5c73b8;}</style></defs><title>additive logo</title><path class="a" d="M236.871,83.5l13.3321-41.7636c.2021-.5977.5542-.8887,1.0576-.8682h4.585a1.029,1.029,0,0,1,1.0283.7813l13.0415,41.8232a1.4316,1.4316,0,0,1,.0869.45c0,.2783-.1753.416-.522.416h-4.7226a.8476.8476,0,0,1-.9024-.6777l-3.539-12.0469H245.6777L241.9834,83.56c-.1485.5195-.4395.7793-.8667.7793H237.289c-.3174,0-.478-.1435-.478-.4346a1.6482,1.6482,0,0,1,.06-.4043m10.1836-16.3408h11.959l-5.8242-19.8369Z"/><path class="a" d="M273.4292,72.5948V64.0362q0-5.7568,3.1674-9.1973a10.909,10.909,0,0,1,8.4317-3.4434q6.16,0,9.3711,4.1065V40.5791q0-.6649.6362-.666H298.94c.4795,0,.7236.2227.7236.666V83.6748c0,.4444-.2441.6641-.7236.6641h-3.7891a.5634.5634,0,0,1-.6377-.67V80.2315a10.8755,10.8755,0,0,1-3.7319,3.3037,11.4376,11.4376,0,0,1-5.7534,1.3828,11.3034,11.3034,0,0,1-8.4033-3.2246q-3.1956-3.2271-3.1958-9.0986m5.2651-.6534q0,4.2452,2.0674,6.3858a7.7,7.7,0,0,0,5.7978,2.1367,7.3436,7.3436,0,0,0,5.6973-2.3408,8.1726,8.1726,0,0,0,2.1426-5.7207V63.65a7.3485,7.3485,0,0,0-2.3155-5.6474,8.1284,8.1284,0,0,0-5.7548-2.1524,7.1736,7.1736,0,0,0-5.5977,2.253q-2.0369,2.2528-2.0371,6.9609Z"/><path class="a" d="M307.0688,72.5948V64.0362q0-5.7568,3.1655-9.1973a10.9063,10.9063,0,0,1,8.4307-3.4434q6.1618,0,9.37,4.1065V40.5791c0-.4433.2134-.666.6377-.666h3.9043c.4805,0,.7241.2227.7241.666V83.6748c0,.4444-.2436.6641-.7241.6641h-3.79a.5627.5627,0,0,1-.6358-.67V80.2315a10.8874,10.8874,0,0,1-3.7314,3.3037,11.4368,11.4368,0,0,1-5.7549,1.3828,11.308,11.308,0,0,1-8.4033-3.2246q-3.1963-3.2271-3.1929-9.0986m5.2627-.6534q0,4.2452,2.0679,6.3858a7.7017,7.7017,0,0,0,5.7978,2.1367,7.35,7.35,0,0,0,5.6992-2.3408,8.1695,8.1695,0,0,0,2.1387-5.7207V63.65a7.3488,7.3488,0,0,0-2.3135-5.6474,8.1246,8.1246,0,0,0-5.7539-2.1524,7.176,7.176,0,0,0-5.5991,2.253q-2.0369,2.2528-2.0371,6.9609Z"/><path class="a" d="M341.8027,46.3633V40.8116q0-.8994.7773-.8985h3.5972a.7911.7911,0,0,1,.89.8985v5.5517c0,.6367-.2988.9541-.89.9541H342.58q-.777,0-.7773-.9541m0,37.1963V52.9q0-.8951.8345-.8946h3.5952a.7262.7262,0,0,1,.8349.8086V83.5a.74.74,0,0,1-.8349.8389H342.58a.688.688,0,0,1-.7773-.7793"/><path class="a" d="M352.187,56.6631v-2.957c0-.5.2124-.7373.6362-.72h4.1074V45.6582q0-.6547.6953-.6543h3.7881c.481,0,.7236.2178.7236.6543v7.3282h6.2764q.6636,0,.6377.72v2.957c0,.5381-.2148.7969-.6377.7774h-6.2207V74.8516q0,2.893,1.13,3.9648a5.5323,5.5323,0,0,0,3.8457,1.0674h1.9385c.5205,0,.7822.2422.7822.7256V83.5c0,.56-.3008.8389-.8975.8389h-2.4873q-4.746,0-7.1591-1.98-2.4156-1.9835-2.4151-7.1894V57.4405h-4.1074q-.6357.0293-.6362-.7774"/><path class="a" d="M376.6279,46.3633V40.8116q0-.8994.7773-.8985H381a.7908.7908,0,0,1,.8916.8985v5.5517q0,.955-.8916.9541h-3.5948q-.7764,0-.7773-.9541m0,37.1963V52.9c0-.5967.2764-.8946.8349-.8946h3.5948a.7259.7259,0,0,1,.834.8086V83.5a.7394.7394,0,0,1-.834.8389h-3.6524a.6882.6882,0,0,1-.7773-.7793"/><path class="a" d="M386.4033,52.7549a.92.92,0,0,1-.0869-.3467c0-.27.1914-.4033.5732-.4033h4.4463a.69.69,0,0,1,.7734.5928L396.8525,67.84q1.4766,4.7388,3.123,11.9873h.1153q1.5923-7.23,3.0947-12.0029l4.6875-15.2422a.6422.6422,0,0,1,.6943-.5772h4.2217q.4908,0,.4912.374a.9384.9384,0,0,1-.0859.376L402.955,83.6162a.896.896,0,0,1-.8955.7227h-4.3984a.8064.8064,0,0,1-.8672-.7246Z"/><path class="a" d="M416.4541,72.4229v-8.59a12.0105,12.0105,0,0,1,3.498-9.0673,12.5671,12.5671,0,0,1,9.1-3.37q6.0351,0,9.3731,3.3272t3.3388,9.8916v4.0762c0,.9472-.4961,1.4179-1.4834,1.4179H421.7207v2.3077a8.6288,8.6288,0,0,0,1.8886,5.8847,7.1311,7.1311,0,0,0,5.6729,2.1631q5.4917,0,7.5713-4.4414a.7676.7676,0,0,1,1.2109-.4023l2.6035,1.2451a.91.91,0,0,1,.4785,1.3613q-3.1757,6.69-11.8642,6.6914-6.1816,0-9.5049-3.3408t-3.3232-9.1543m5.2666-6.2754H436.498V63.833a8.5907,8.5907,0,0,0-1.86-5.8564,7.0354,7.0354,0,0,0-5.5859-2.127,6.9107,6.9107,0,0,0-5.3555,2.1553,8.29,8.29,0,0,0-1.9755,5.8281Z"/><path class="a" d="M460.3623,83.6748V41.6778c0-.4434.2392-.6553.7216-.6367h4.0782c.48,0,.7129.2138.6953.6367v41.997c0,.4444-.2315.6641-.6953.6641h-4.0782c-.4824,0-.7216-.22-.7216-.6641"/><path class="a" d="M475.083,83.6748V52.6407q0-.6651.7177-.6368h3.6534c.5166,0,.7763.212.7763.6368v4.3369q4.2012-5.581,10.4922-5.5821,4.5571,0,6.8965,2.7911a11.1907,11.1907,0,0,1,2.3359,7.42V83.6748c0,.4444-.2588.6641-.7744.6641h-3.7119c-.5176,0-.7764-.22-.7764-.6641V63.1973a9.9739,9.9739,0,0,0-1.2451-5.3945q-1.2465-1.9542-4.5508-1.9522a8.0737,8.0737,0,0,0-5.0146,1.75,11.9611,11.9611,0,0,0-3.5361,4.2949V83.6748c0,.4444-.2383.6641-.7188.6641h-3.8262c-.4785,0-.7177-.22-.7177-.6641"/><path class="a" d="M507.0126,72.5948V64.0362a13.0449,13.0449,0,0,1,3.169-9.1973,10.9053,10.9053,0,0,1,8.4316-3.4434q6.16,0,9.37,4.1065V40.5791q0-.6649.6367-.666h3.9043q.7221,0,.7226.666V83.6748c0,.4444-.2412.6641-.7226.6641h-3.7881a.5623.5623,0,0,1-.6367-.67V80.2315a10.8916,10.8916,0,0,1-3.7325,3.3037,11.4455,11.4455,0,0,1-5.7539,1.3828,11.2975,11.2975,0,0,1-8.4023-3.2246q-3.1963-3.2271-3.1983-9.0986m5.2667-.6534q0,4.2452,2.0654,6.3858a7.7071,7.7071,0,0,0,5.8008,2.1367,7.347,7.347,0,0,0,5.6972-2.3408,8.1711,8.1711,0,0,0,2.1407-5.7207V63.65A7.354,7.354,0,0,0,525.67,58.003a8.1352,8.1352,0,0,0-5.7569-2.1524,7.1714,7.1714,0,0,0-5.5957,2.253q-2.039,2.2528-2.038,6.9609Z"/><path class="a" d="M541.4043,75.3428V52.6407c0-.4444.24-.6563.7236-.6358h3.8447c.4824,0,.7158.1914.6953.5772V74.4239a6.5613,6.5613,0,0,0,1.3731,4.4941,4.8267,4.8267,0,0,0,3.8047,1.5459q5.3789,0,9.2255-5.0283V52.6377c0-.4414.2413-.6533.7247-.6328h3.8457c.4814,0,.7128.1914.6953.5772V83.6748c0,.4444-.2139.6641-.6368.6641h-3.79c-.4814,0-.7226-.2217-.7226-.67V79.9727q-4.8,4.9467-10.7012,4.9443a8.806,8.806,0,0,1-6.711-2.5009q-2.3715-2.502-2.371-7.0733"/><path class="a" d="M572.7871,77.3448a1.3836,1.3836,0,0,1-.06-.3809.7915.7915,0,0,1,.6133-.8037l2.8691-1.09a.6908.6908,0,0,1,1.0293.5166,6.8185,6.8185,0,0,0,2.3428,3.5292,7.2528,7.2528,0,0,0,4.6142,1.3487,6.69,6.69,0,0,0,4.2823-1.292,4.08,4.08,0,0,0,1.6318-3.3574,4.1282,4.1282,0,0,0-1.6875-3.3545,13.8006,13.8006,0,0,0-4.11-2.1953q-2.4258-.8452-4.9024-1.85a10.7606,10.7606,0,0,1-4.2041-3.0274,7.446,7.446,0,0,1-1.7275-5.0058,8.0738,8.0738,0,0,1,2.9814-6.48,11.6971,11.6971,0,0,1,7.793-2.5079,10.9757,10.9757,0,0,1,6.831,2.0284,9.6054,9.6054,0,0,1,3.54,5.333q.2446.8407-.4658,1.0136l-3.337.84c-.4531.1162-.7275-.0645-.8271-.544q-1.355-4.2158-6.0293-4.2168a6.2944,6.2944,0,0,0-3.9951,1.1475,3.8269,3.8269,0,0,0-1.4571,3.1856,3.6237,3.6237,0,0,0,1.6885,3.0263,15.431,15.431,0,0,0,4.1114,2.0371q2.42.8175,4.914,1.878a10.7121,10.7121,0,0,1,4.2031,3.1992,8.9337,8.9337,0,0,1-1.3076,11.9609,11.6263,11.6263,0,0,1-7.9258,2.6338,13.3192,13.3192,0,0,1-7.4794-1.9521,9.2966,9.2966,0,0,1-3.93-5.6211"/><path class="a" d="M597.7177,56.6631v-2.957c0-.5.2119-.7373.6358-.72h4.1074V45.6582q0-.6547.6953-.6543h3.7881c.4814,0,.7236.2178.7236.6543v7.3282h6.2764q.6636,0,.6377.72v2.957c0,.5381-.2149.7969-.6377.7774h-6.2207V74.8516q0,2.893,1.13,3.9648a5.5323,5.5323,0,0,0,3.8457,1.0674h1.9384c.5206,0,.7833.2422.7833.7256V83.5c0,.56-.3018.8389-.8995.8389h-2.4863q-4.7447,0-7.1592-1.98-2.4155-1.9835-2.415-7.1894V57.4405h-4.1074q-.6359.0293-.6358-.7774"/><path class="a" d="M622.1582,83.6748V52.6407q0-.6651.7187-.6368H626.53c.5166,0,.7764.2081.7764.626v5.7412a13.13,13.13,0,0,1,4.1348-4.9746,9.8058,9.8058,0,0,1,5.9316-2.001q.9535,0,.8086.8819l-.5781,3.6142q-.0587.5684-.7813.711h-1.4746a8.2,8.2,0,0,0-5.0322,2.2783,9.8082,9.8082,0,0,0-2.8936,4.4814V83.6709c0,.4463-.2392.668-.7187.668H622.82a.585.585,0,0,1-.6621-.6641"/><path class="a" d="M642.5205,46.3633V40.8116q0-.8994.7763-.8985h3.5957a.7911.7911,0,0,1,.8916.8985v5.5517q0,.955-.8916.9541h-3.5957q-.7762,0-.7763-.9541m0,37.1963V52.9c0-.5967.2763-.8946.8339-.8946h3.5948a.7266.7266,0,0,1,.8349.8086V83.5a.74.74,0,0,1-.8349.8389h-3.6524a.6875.6875,0,0,1-.7763-.7793"/><path class="a" d="M655.1591,72.4229v-8.59a12.01,12.01,0,0,1,3.4961-9.0673,12.57,12.57,0,0,1,9.1-3.37q6.0337,0,9.3731,3.3272,3.3369,3.3267,3.3379,9.8916v4.0762c0,.9472-.4922,1.4179-1.48,1.4179H660.4228v2.3077a8.63,8.63,0,0,0,1.8916,5.8847,7.1247,7.1247,0,0,0,5.6719,2.1631q5.4888,0,7.5722-4.4414a.7684.7684,0,0,1,1.212-.4023l2.6025,1.2451a.91.91,0,0,1,.4785,1.3613q-3.1787,6.69-11.8652,6.6914-6.1847,0-9.5029-3.3408-3.3252-3.3414-3.3243-9.1543m5.2637-6.2754h14.7793V63.833a8.5865,8.5865,0,0,0-1.8613-5.8564,7.0289,7.0289,0,0,0-5.586-2.127,6.916,6.916,0,0,0-5.3554,2.1553,8.29,8.29,0,0,0-1.9766,5.8281Z"/><path class="a" d="M685.2392,77.3448a1.3473,1.3473,0,0,1-.0586-.3809.7917.7917,0,0,1,.6113-.8037l2.87-1.09a.6935.6935,0,0,1,1.0322.5166,6.7973,6.7973,0,0,0,2.3408,3.5292,7.25,7.25,0,0,0,4.6152,1.3487,6.7,6.7,0,0,0,4.2842-1.292,4.0883,4.0883,0,0,0,1.6319-3.3574,4.1324,4.1324,0,0,0-1.6914-3.3545,13.752,13.752,0,0,0-4.11-2.1953q-2.4228-.8452-4.9023-1.85a10.7713,10.7713,0,0,1-4.2032-3.0274,7.4453,7.4453,0,0,1-1.7265-5.0058,8.0807,8.0807,0,0,1,2.98-6.48,11.7058,11.7058,0,0,1,7.7949-2.5079,10.977,10.977,0,0,1,6.83,2.0284,9.5939,9.5939,0,0,1,3.539,5.333c.1631.56.0069.8984-.4648,1.0136l-3.335.84q-.6812.1743-.8271-.544-1.355-4.2158-6.0313-4.2168a6.3033,6.3033,0,0,0-3.9961,1.1475,3.8335,3.8335,0,0,0-1.455,3.1856,3.62,3.62,0,0,0,1.6875,3.0263,15.4383,15.4383,0,0,0,4.11,2.0371q2.4258.8175,4.9141,1.878a10.6922,10.6922,0,0,1,4.2031,3.1992,8.9333,8.9333,0,0,1-1.3057,11.9609A11.6316,11.6316,0,0,1,696.65,84.918a13.3148,13.3148,0,0,1-7.4794-1.9521,9.3038,9.3038,0,0,1-3.9317-5.6211"/><path class="b" d="M192.17,22.9766,200.4306,0H160.6367A64.8049,64.8049,0,0,1,192.17,22.9766"/><path class="a" d="M50.5068,89.9678,70.8212,33.4649,90.7353,88.8555C117.3359,85.68,129.64,78.5078,129.6416,78.5078L101.415.001h-61.19L9.5883,85.2168a338.1192,338.1192,0,0,0,40.9185,4.751"/><path class="a" d="M9.5878,85.2168,0,111.8858H42.6269l5.582-15.5274C24.7705,92.167,9.5087,85.211,9.5878,85.2168"/><path class="a" d="M94.4033,99.0616l4.6113,12.8242h18.5645l1.6171-16.33a166.9776,166.9776,0,0,1-24.7929,3.5059"/><path class="b" d="M154.2138,10.5264l-9.4707,26.2051C138.4448,53.3164,110.6767,96.7422,9.5878,85.2168c0,0,72.4585,16.7871,120.0538-6.707l-12.0635,33.376h42.6274L187.8867,35.43a64.8037,64.8037,0,0,0-33.6729-24.9033"/></svg>